<?xml version="1.0" standalone="no"?>
<!DOCTYPE svg PUBLIC "-//W3C//DTD SVG 1.1//EN" "http://www.w3.org/Graphics/SVG/1.1/DTD/svg11.dtd" >
<svg xmlns="http://www.w3.org/2000/svg" xmlns:xlink="http://www.w3.org/1999/xlink" version="1.1">
<metadata></metadata>
<defs>
<font id="space_groteskbold" horiz-adv-x="1269" >
<font-face units-per-em="2048" ascent="1638" descent="-410" />
<missing-glyph horiz-adv-x="520" />
<glyph unicode="&#xfb01;" horiz-adv-x="1380" d="M53 803v213h258v188q0 104 62.5 167t163.5 63h245v-213h-155q-57 0 -58 -62v-143h410v-213h-410v-803h-258v803h-258zM942 1290q0 74 48 119t118 45q72 0 119 -45t47 -119t-47 -119t-119 -45q-70 0 -118 45.5t-48 118.5zM979 0v1016h258v-1016h-258z" />
<glyph unicode="&#xfb02;" horiz-adv-x="1380" d="M53 803v213h258v188q0 104 62.5 167t163.5 63h266v-213h-176q-57 0 -58 -62v-143h267v-213h-267v-803h-258v803h-258zM979 0v1434h258v-1434h-258z" />
<glyph unicode="&#xfb03;" horiz-adv-x="2048" d="M53 803v213h258v188q0 104 62.5 167t163.5 63h266v-213h-176q-57 0 -58 -62v-143h205v-213h-205v-803h-258v803h-258zM774 803v213h205v188q0 104 62.5 167t162.5 63h246v-213h-156q-57 0 -57 -62v-143h410v-213h-410v-803h-258v803h-205zM1610 1290q0 74 48 119t118 45 q72 0 119 -45t47 -119t-47 -119t-119 -45q-70 0 -118 45.5t-48 118.5zM1647 0v1016h258v-1016h-258z" />
<glyph unicode="&#xfb04;" horiz-adv-x="2048" d="M53 803v213h258v188q0 104 62.5 167t163.5 63h266v-213h-176q-57 0 -58 -62v-143h205v-213h-205v-803h-258v803h-258zM774 803v213h205v188q0 104 62.5 167t162.5 63h266v-213h-176q-57 0 -57 -62v-143h266v-213h-266v-803h-258v803h-205zM1647 0v1434h258v-1434h-258z " />
<glyph horiz-adv-x="0" />
<glyph horiz-adv-x="682" />
<glyph unicode="&#xd;" horiz-adv-x="1228" />
<glyph unicode=" "  horiz-adv-x="520" />
<glyph unicode="&#x09;" horiz-adv-x="520" />
<glyph unicode="&#xa0;" horiz-adv-x="520" />
<glyph unicode="!" horiz-adv-x="610" d="M111 166q0 86 56 140t140 54q82 0 137.5 -54t55.5 -140t-55.5 -140.5t-137.5 -54.5q-84 0 -140 54.5t-56 140.5zM174 471v963h262v-963h-262z" />
<glyph unicode="&#x22;" horiz-adv-x="1052" d="M111 1278q0 82 54 133t136 51q84 0 137.5 -52t53.5 -140v-236q0 -229 -230 -229h-100v139h80q94 0 94 94v66h-35q-82 0 -136 49t-54 125zM562 1278q0 82 54 133t136 51q84 0 137.5 -52t53.5 -140v-236q0 -229 -230 -229h-100v139h80q94 0 94 94v66h-35q-82 0 -136 49 t-54 125z" />
<glyph unicode="#" horiz-adv-x="1302" d="M82 381v221h221v229h-221v222h221v381h234v-381h229v381h233v-381h222v-222h-222v-229h222v-221h-222v-381h-233v381h-229v-381h-234v381h-221zM537 602h229v229h-229v-229z" />
<glyph unicode="$" horiz-adv-x="1241" d="M70 467v57h266v-57q0 -129 80 -193.5t217 -64.5q139 0 207.5 55t68.5 142q0 59 -32.5 96t-96 60.5t-155.5 43.5l-47 10q-147 33 -253 83.5t-162.5 132t-56.5 212.5t62.5 224.5t176.5 143.5t267 50q154 0 274 -52t188.5 -155.5t68.5 -259.5v-61h-266v61q0 82 -32 132.5 t-91.5 74t-141.5 23.5q-123 0 -181 -46t-58 -126q0 -53 27.5 -90t83 -61.5t141.5 -43.5l47 -10q154 -33 266.5 -84t175 -135t62.5 -215t-67 -230.5t-188.5 -156t-287.5 -56.5t-293 59.5t-198.5 170t-71.5 266.5zM508 -238v1909h246v-1909h-246z" />
<glyph unicode="%" horiz-adv-x="1552" d="M53 1128v15q0 145 88 228t244 83q152 0 242 -83t90 -228v-15q0 -143 -88 -226t-244 -83t-244 83t-88 226zM147 98l1102 1362l156 -125l-1102 -1362zM258 1120q0 -59 34 -96t93 -37t93 37t34 96v33q0 59 -34 96t-93 37t-93 -37t-34 -96v-33zM836 289v14q0 145 88 228 t243 83q152 0 242 -82.5t90 -228.5v-14q0 -143 -88 -226t-244 -83t-243.5 82.5t-87.5 226.5zM1040 281q0 -59 34 -96.5t93 -37.5t93 37t34 97v32q0 59 -33.5 96t-93.5 37q-59 0 -93 -36.5t-34 -96.5v-32z" />
<glyph unicode="&#x26;" horiz-adv-x="1210" d="M57 387q0 88 32 153.5t87 108.5t123 64v28q-102 31 -167.5 107t-65.5 201t55 211t150.5 130t217.5 44h224v-213h-176q-92 0 -152.5 -49.5t-60.5 -145.5q0 -68 29.5 -111t77.5 -63.5t106 -20.5h198v185h258v-185h189v-213h-189v-618h-512q-127 0 -222 46t-148.5 133 t-53.5 208zM315 416q0 -102 64.5 -152.5t148.5 -50.5h207v405h-207q-90 0 -151.5 -51t-61.5 -151z" />
<glyph unicode="'" horiz-adv-x="602" d="M111 1278q0 82 54 133t136 51q84 0 137.5 -52t53.5 -140v-236q0 -229 -230 -229h-100v139h80q94 0 94 94v66h-35q-82 0 -136 49t-54 125z" />
<glyph unicode="(" horiz-adv-x="815" d="M102 238v569q0 254 79 418t234.5 243.5t383.5 79.5v-221q-223 0 -335 -128t-112 -400v-553q0 -272 111.5 -400.5t335.5 -128.5v-221q-227 0 -383 80t-235 244t-79 418z" />
<glyph unicode=")" horiz-adv-x="798" d="M0 -283q225 0 335.5 128t110.5 401v553q0 272 -110.5 400t-335.5 128v221q229 0 384 -79.5t233.5 -243.5t78.5 -418v-569q0 -254 -78.5 -418t-233.5 -244t-384 -80v221z" />
<glyph unicode="*" horiz-adv-x="1105" d="M90 895v152h160l147 -27l11 27l-123 83l-113 115l107 107l114 -113l84 -123l27 10l-27 148v160h152v-160l-27 -148l27 -10l84 123l114 113l107 -107l-113 -115l-123 -83l11 -27l147 27h160v-152h-160l-147 27l-11 -27l123 -84l113 -115l-107 -106l-114 112l-84 123 l-27 -10l27 -147v-160h-152v160l27 147l-27 10l-84 -123l-114 -112l-107 106l113 115l123 84l-11 27l-147 -27h-160z" />
<glyph unicode="+" d="M207 600v234h307v311h242v-311h307v-234h-307v-311h-242v311h-307z" />
<glyph unicode="," horiz-adv-x="602" d="M111 172q0 82 54 133t136 51q84 0 137.5 -52t53.5 -140v-236q0 -229 -230 -229h-100v139h80q94 0 94 94v66h-35q-82 0 -136 49t-54 125z" />
<glyph unicode="-" horiz-adv-x="884" d="M139 406v233h606v-233h-606z" />
<glyph unicode="." horiz-adv-x="610" d="M111 166q0 86 56 140t140 54q82 0 137.5 -54t55.5 -140t-55.5 -140.5t-137.5 -54.5q-84 0 -140 54.5t-56 140.5z" />
<glyph unicode="/" horiz-adv-x="794" d="M-33 -410l602 1844h258l-602 -1844h-258z" />
<glyph unicode="0" horiz-adv-x="1327" d="M102 537v360q0 276 154 420.5t408 144.5q256 0 408.5 -144t152.5 -421v-360q0 -285 -152.5 -425.5t-408.5 -140.5q-254 0 -408 140.5t-154 425.5zM365 528q0 -162 74.5 -242.5t224.5 -80.5q154 0 226.5 84t72.5 239v381q0 158 -81 239t-218 81q-141 0 -220 -84t-79 -236 v-381z" />
<glyph unicode="1" horiz-adv-x="925" d="M25 786l292 648h474v-1434h-263v1241h-36l-193 -455h-274z" />
<glyph unicode="2" horiz-adv-x="1216" d="M86 0v172q0 150 49 249t142.5 163.5t228.5 105.5l137 43q76 25 127 60.5t79 87t28 116.5v9q0 102 -70 162.5t-191 60.5q-119 0 -191.5 -64.5t-72.5 -185.5v-37h-262v33q0 156 69.5 264.5t189.5 165.5t267 57t266 -56t188 -157.5t69 -238.5v-21q0 -137 -56.5 -232 t-152.5 -155.5t-219 -99.5l-131 -41q-88 -27 -137.5 -58.5t-69 -69.5t-19.5 -91v-9h772v-233h-1040z" />
<glyph unicode="3" horiz-adv-x="1245" d="M70 449v36h262v-28q0 -115 80 -183.5t211 -68.5q133 0 205.5 63.5t72.5 159.5v21q0 66 -32.5 106.5t-88 60t-125.5 19.5h-286v287l462 245v33h-725v234h1016v-349l-432 -229v-33h76q96 0 187 -39t150.5 -119.5t59.5 -209.5v-25q0 -139 -67.5 -242.5t-189 -160 t-283.5 -56.5t-287 57.5t-195.5 165t-70.5 255.5z" />
<glyph unicode="4" horiz-adv-x="1302" d="M53 291v303l496 840h471v-910h237v-233h-237v-291h-262v291h-705zM303 524h455v742h-37l-418 -709v-33z" />
<glyph unicode="5" horiz-adv-x="1228" d="M78 451v20h266v-18q0 -102 68.5 -175t203.5 -73t208 72.5t73 189.5v20q0 115 -72.5 182.5t-181.5 67.5q-59 0 -98 -16t-63.5 -41t-41.5 -49h-317v803h979v-238h-717v-350h37q20 27 55 51.5t90.5 40.5t130.5 16q127 0 231.5 -53t167 -156.5t62.5 -255.5v-24 q0 -152 -64.5 -262.5t-185 -171t-288.5 -60.5t-290 59.5t-187.5 168t-65.5 252.5z" />
<glyph unicode="6" horiz-adv-x="1265" d="M102 453v489q0 174 71 290t195 173t283 57q160 0 278 -53t182.5 -153.5t64.5 -239.5h-267q0 86 -59 149.5t-199 63.5q-137 0 -211.5 -72t-74.5 -199v-147h36q35 41 107 78t209 37q125 0 230.5 -53.5t171 -155t65.5 -244.5v-24q0 -141 -67.5 -249t-190.5 -168.5 t-287 -60.5t-285 61.5t-186.5 170t-65.5 250.5zM365 453q0 -113 74.5 -180.5t203.5 -67.5t204 67.5t75 180.5v16q0 76 -34 131t-96.5 86t-148.5 31q-84 0 -147.5 -31t-97 -86t-33.5 -131v-16z" />
<glyph unicode="7" horiz-adv-x="1134" d="M53 1200v234h1032v-312l-507 -907q-27 -47 -37.5 -84t-10.5 -90v-41h-262v53q0 80 12.5 136.5t53.5 127.5l481 850v33h-762z" />
<glyph unicode="8" horiz-adv-x="1228" d="M57 383v25q0 98 35 162.5t87 101.5t100 51v37q-47 16 -94.5 53t-77 98.5t-29.5 147.5v24q0 113 66.5 198t187.5 133t282 48q162 0 283 -48t187.5 -133t66.5 -198v-24q0 -86 -29.5 -147.5t-76 -98.5t-95.5 -53v-37q49 -14 100.5 -51t86 -101.5t34.5 -162.5v-25 q0 -127 -70.5 -220t-196.5 -142.5t-290 -49.5t-289.5 49.5t-196.5 142.5t-71 220zM319 403q0 -90 77 -144t218 -54t218 54t77 144v17q0 90 -74.5 144t-220.5 54q-143 0 -219 -54t-76 -144v-17zM340 1032q0 -86 71.5 -133t202.5 -47t203 47t72 133v17q0 86 -74 133t-201 47 t-200.5 -47t-73.5 -133v-17z" />
<glyph unicode="9" horiz-adv-x="1265" d="M82 961v24q0 143 67.5 249.5t190.5 167t287 60.5t284.5 -61.5t186 -170t65.5 -249.5v-489q0 -174 -70.5 -290t-194.5 -173.5t-284 -57.5t-277.5 53.5t-182 154t-64.5 239.5h266q0 -86 60.5 -149.5t197.5 -63.5q139 0 213 72.5t74 197.5v148h-37q-35 -41 -105.5 -78 t-209.5 -37q-123 0 -229.5 53t-172 154.5t-65.5 245.5zM344 965q0 -76 34 -131.5t97.5 -86t147.5 -30.5q86 0 148.5 30.5t96 86t33.5 131.5v16q0 115 -74.5 181.5t-203.5 66.5t-204 -66.5t-75 -181.5v-16z" />
<glyph unicode=":" horiz-adv-x="610" d="M111 166q0 86 56 140t140 54q82 0 137.5 -54t55.5 -140t-55.5 -140.5t-137.5 -54.5q-84 0 -140 54.5t-56 140.5zM111 850q0 86 56 140t140 54q82 0 137.5 -54t55.5 -140t-55.5 -140.5t-137.5 -54.5q-84 0 -140 54.5t-56 140.5z" />
<glyph unicode=";" horiz-adv-x="610" d="M111 850q0 86 56 140t140 54q82 0 137.5 -54t55.5 -140t-55.5 -140.5t-137.5 -54.5q-84 0 -140 54.5t-56 140.5zM115 172q0 82 54 133t136 51q84 0 137.5 -52t53.5 -140v-236q0 -229 -230 -229h-100v139h80q94 0 94 94v66h-35q-82 0 -136 49t-54 125z" />
<glyph unicode="&#x3c;" d="M205 557v320l860 290v-245l-610 -187v-37l610 -186v-246z" />
<glyph unicode="=" d="M207 422v233h856v-233h-856zM207 778v234h856v-234h-856z" />
<glyph unicode="&#x3e;" d="M205 266v246l610 186v37l-610 187v245l860 -290v-320z" />
<glyph unicode="?" horiz-adv-x="1183" d="M70 967v41q0 141 69.5 243.5t188 156.5t266.5 54q145 0 259 -53t179.5 -147.5t65.5 -217.5t-45 -201.5t-114 -126.5t-140 -83l-35 -17q-37 -16 -51.5 -39.5t-14.5 -68.5v-37h-270v49q0 104 42 172t136 113l35 16q92 43 141 92.5t49 130.5q0 59 -29.5 101.5t-82.5 65 t-125 22.5q-74 0 -132.5 -24.5t-92 -74t-33.5 -122.5v-45h-266zM377 166q0 86 56 140t138 54q84 0 139.5 -54t55.5 -140t-55.5 -140.5t-139.5 -54.5q-82 0 -138 54.5t-56 140.5z" />
<glyph unicode="@" horiz-adv-x="2076" d="M135 504v49q0 281 110.5 484.5t315.5 314t488 110.5h45q258 0 450.5 -107.5t299 -300t106.5 -448.5v-151q0 -215 -88 -335t-265 -120h-118q-96 0 -147.5 39t-51.5 104v4h-37q-16 -43 -48 -79.5t-81 -58t-125 -21.5q-129 0 -222 68.5t-143.5 183t-50.5 256.5v32 q0 143 48.5 258t137.5 182.5t210 67.5q76 0 125 -18.5t79.5 -49t51.5 -67.5h37v123h249v-725q0 -35 14.5 -52.5t49.5 -17.5h8q59 0 86 56.5t27 169.5v147q0 195 -66.5 335t-202 216t-342.5 76h-28q-207 0 -356.5 -78t-230.5 -230.5t-81 -375.5v-33q0 -223 83 -376.5 t239.5 -232.5t378.5 -79h426v-234h-443q-293 0 -503 112t-322.5 316.5t-112.5 485.5zM827 500q0 -135 57.5 -213t157.5 -78t160 78t60 213v24q0 135 -59.5 213t-160.5 78q-100 0 -157.5 -78t-57.5 -213v-24z" />
<glyph unicode="A" horiz-adv-x="1298" d="M37 0l377 1434h471l377 -1434h-279l-78 315h-512l-78 -315h-278zM457 565h385l-174 699h-37z" />
<glyph unicode="B" horiz-adv-x="1359" d="M94 0v238h189v958h-189v238h737q131 0 228.5 -44t152 -125t54.5 -194v-20q0 -98 -37 -161t-87 -96.5t-95 -48.5v-36q45 -12 98 -46t91 -97.5t38 -166.5v-20q0 -119 -55.5 -204t-152.5 -130t-226 -45h-746zM553 246h254q88 0 142.5 43t54.5 123v20q0 80 -53.5 123 t-143.5 43h-254v-352zM553 844h250q84 0 138 43t54 119v20q0 78 -53 120t-139 42h-250v-344z" />
<glyph unicode="C" horiz-adv-x="1318" d="M102 545v344q0 276 156 424.5t422 148.5q264 0 408.5 -144t144.5 -396v-13h-266v21q0 127 -71 209t-216 82q-143 0 -225 -88.5t-82 -239.5v-352q0 -150 82 -239t225 -89q145 0 216 83t71 208v37h266v-29q0 -252 -144.5 -396.5t-408.5 -144.5q-266 0 -422 148.5 t-156 425.5z" />
<glyph unicode="D" horiz-adv-x="1363" d="M94 0v238h189v958h-189v238h590q289 0 439.5 -146.5t150.5 -435.5v-270q0 -289 -150.5 -435.5t-439.5 -146.5h-590zM553 246h135q164 0 240 86t76 241v287q0 158 -76 243t-240 85h-135v-942z" />
<glyph unicode="E" horiz-adv-x="1134" d="M135 0v1434h922v-246h-651v-342h593v-246h-593v-354h663v-246h-934z" />
<glyph unicode="F" horiz-adv-x="1093" d="M135 0v1434h901v-246h-630v-346h581v-246h-581v-596h-271z" />
<glyph unicode="G" horiz-adv-x="1355" d="M102 545v344q0 276 156 424.5t422 148.5q264 0 408.5 -140t144.5 -380v-8h-266v16q0 76 -32 137.5t-95.5 97.5t-159.5 36q-143 0 -225 -88.5t-82 -239.5v-352q0 -150 82 -241t229 -91t215 78t68 196v21h-340v229h606v-733h-250v137h-37q-14 -35 -46 -73.5t-95 -65.5 t-174 -27q-147 0 -267 66.5t-191 194.5t-71 313z" />
<glyph unicode="H" horiz-adv-x="1343" d="M135 0v1434h271v-592h532v592h270v-1434h-270v596h-532v-596h-271z" />
<glyph unicode="I" horiz-adv-x="540" d="M135 0v1434h271v-1434h-271z" />
<glyph unicode="J" horiz-adv-x="1249" d="M66 430v135h270v-135q0 -96 53 -150.5t150 -54.5q90 0 140 53.5t50 151.5v758h-246v246h680v-246h-164v-758q0 -223 -120.5 -341t-331.5 -118q-221 0 -351 121t-130 338z" />
<glyph unicode="K" horiz-adv-x="1282" d="M135 0v1434h271v-570h36l465 570h346l-598 -707l619 -727h-356l-476 582h-36v-582h-271z" />
<glyph unicode="L" horiz-adv-x="1110" d="M135 0v1434h271v-1188h655v-246h-926z" />
<glyph unicode="M" horiz-adv-x="1806" d="M135 0v1434h502l248 -1250h37l247 1250h502v-1434h-262v1235h-37l-246 -1235h-446l-246 1235h-37v-1235h-262z" />
<glyph unicode="N" horiz-adv-x="1372" d="M135 0v1434h514l285 -1250h37v1250h266v-1434h-514l-285 1249h-37v-1249h-266z" />
<glyph unicode="O" horiz-adv-x="1384" d="M102 545v344q0 276 160 424.5t430 148.5t430 -148.5t160 -424.5v-344q0 -276 -160 -425t-430 -149t-430 148.5t-160 425.5zM373 537q0 -147 84.5 -235.5t234.5 -88.5q152 0 236 88t84 236v360q0 147 -84 235.5t-236 88.5q-150 0 -234.5 -88.5t-84.5 -235.5v-360z" />
<glyph unicode="P" horiz-adv-x="1236" d="M135 0v1434h590q135 0 238.5 -54.5t162 -153t58.5 -233.5v-28q0 -133 -60.5 -232.5t-164 -154t-234.5 -54.5h-319v-524h-271zM406 770h292q96 0 155.5 53.5t59.5 145.5v20q0 92 -59 145.5t-156 53.5h-292v-418z" />
<glyph unicode="Q" horiz-adv-x="1384" d="M102 545v344q0 276 160 424.5t430 148.5t430 -148.5t160 -424.5v-344q0 -276 -160 -425t-430 -149t-430 148.5t-160 425.5zM373 537q0 -147 84.5 -235.5t234.5 -88.5q152 0 236 88t84 236v360q0 147 -84 235.5t-236 88.5q-150 0 -234.5 -88.5t-84.5 -235.5v-360zM561 0 h262v-98q0 -61 58 -62h120v-209h-215q-100 0 -162.5 62.5t-62.5 167.5v139z" />
<glyph unicode="R" horiz-adv-x="1294" d="M135 0v1434h623q135 0 235.5 -47.5t155.5 -133.5t55 -202v-25q0 -129 -61.5 -209t-151.5 -117v-36q82 -4 127 -56.5t45 -138.5v-469h-270v430q0 49 -25.5 80t-85.5 31h-376v-541h-271zM406 786h323q96 0 150.5 52.5t54.5 138.5v20q0 86 -53.5 138.5t-151.5 52.5h-323 v-402z" />
<glyph unicode="S" horiz-adv-x="1241" d="M70 467v57h266v-57q0 -129 80 -193.5t217 -64.5q139 0 207.5 55t68.5 142q0 59 -33.5 96t-98 60.5t-156.5 43.5l-48 10q-147 33 -252.5 83.5t-162 132t-56.5 212.5t62.5 224.5t176.5 143.5t267 50q154 0 273.5 -52t188.5 -155.5t69 -259.5v-61h-267v61q0 82 -31.5 132.5 t-91 74t-141.5 23.5q-123 0 -181 -46t-58 -126q0 -53 27.5 -90t83 -61.5t141.5 -43.5l47 -10q154 -33 267.5 -84t177 -135t63.5 -215t-67 -230.5t-188.5 -156t-287.5 -56.5t-293 59.5t-198.5 170t-71.5 266.5z" />
<glyph unicode="T" horiz-adv-x="1204" d="M49 1188v246h1106v-246h-418v-1188h-270v1188h-418z" />
<glyph unicode="U" horiz-adv-x="1376" d="M127 504v930h270v-938q0 -131 75 -207t216 -76t216 76t75 207v938h270v-930q0 -164 -66.5 -284t-192.5 -184.5t-302 -64.5t-302 64.5t-192.5 184.5t-66.5 284z" />
<glyph unicode="V" horiz-adv-x="1265" d="M37 1434h278l303 -1260h29l303 1260h279l-365 -1434h-463z" />
<glyph unicode="W" horiz-adv-x="1839" d="M61 1434h269l139 -1246h37l180 1246h467l180 -1246h37l139 1246h269l-189 -1434h-467l-184 1274h-37l-184 -1274h-467z" />
<glyph unicode="X" horiz-adv-x="1318" d="M45 0l420 723l-416 711h307l285 -519h37l285 519h307l-416 -711l420 -723h-307l-289 530h-37l-289 -530h-307z" />
<glyph unicode="Y" horiz-adv-x="1277" d="M16 1434h301l304 -615h36l304 615h301l-488 -940v-494h-270v494z" />
<glyph unicode="Z" horiz-adv-x="1179" d="M94 0v344l709 815v33h-688v242h970v-344l-708 -816v-32h713v-242h-996z" />
<glyph unicode="[" horiz-adv-x="733" d="M143 -295v1634q0 92 58.5 150.5t150.5 58.5h348v-221h-251q-55 0 -56 -61v-1487q0 -61 56 -62h251v-221h-348q-92 0 -150.5 58.5t-58.5 150.5z" />
<glyph unicode="\" horiz-adv-x="794" d="M-33 1434h258l602 -1844h-258z" />
<glyph unicode="]" horiz-adv-x="733" d="M33 -283h252q55 0 55 62v1487q0 61 -55 61h-252v221h348q92 0 150.5 -58t58.5 -151v-1634q0 -92 -58.5 -150.5t-150.5 -58.5h-348v221z" />
<glyph unicode="^" d="M143 868l299 566h385l299 -566h-286l-187 402h-37l-186 -402h-287z" />
<glyph unicode="_" d="M133 -98h1004v-234h-1004v234z" />
<glyph unicode="`" horiz-adv-x="606" d="M82 1434h291l151 -304h-225z" />
<glyph unicode="a" horiz-adv-x="1183" d="M78 297q0 104 50 175t139 106.5t204 35.5h279v58q0 72 -45.5 118t-143.5 46q-96 0 -143 -44t-62 -114l-237 80q25 78 79 142.5t145 104t222 39.5q201 0 317.5 -100t116.5 -291v-379q0 -61 58 -61h82v-213h-172q-76 0 -125 37t-49 98v2h-39q-8 -25 -37 -64.5t-90.5 -70.5 t-167.5 -31q-109 0 -195 38t-136 111t-50 177zM336 305q0 -55 43 -90t125 -35q109 0 177.5 60.5t68.5 160.5v21h-261q-72 0 -112.5 -31t-40.5 -86z" />
<glyph unicode="b" horiz-adv-x="1306" d="M143 0v1434h258v-535h37q23 37 61 69.5t100.5 54t154.5 21.5q123 0 227 -60t167.5 -177t63.5 -283v-32q0 -166 -63.5 -283t-167.5 -177.5t-227 -60.5q-137 0 -211 47.5t-109 104.5h-37v-123h-254zM397 498q0 -147 80 -224t199 -77t198.5 76.5t79.5 224.5v20 q0 147 -78.5 224t-199.5 77q-119 0 -199 -76.5t-80 -224.5v-20z" />
<glyph unicode="c" horiz-adv-x="1200" d="M94 494v28q0 166 69.5 283t189.5 178t268 61q145 0 249.5 -51t169 -140t84.5 -202l-250 -53q-8 61 -36.5 110.5t-80.5 78t-130 28.5t-140.5 -33.5t-98.5 -100.5t-36 -163v-20q0 -96 36 -163t98.5 -100.5t140.5 -33.5q117 0 177 60.5t77 158.5l249 -60 q-27 -109 -91 -197.5t-168.5 -140t-249.5 -51.5q-147 0 -267.5 61.5t-190 178.5t-69.5 283z" />
<glyph unicode="d" horiz-adv-x="1306" d="M94 492v32q0 166 63.5 283t168 177t227.5 60q92 0 154.5 -21.5t101.5 -54t59 -69.5h37v535h258v-1434h-254v123h-37q-35 -57 -107.5 -104.5t-211.5 -47.5q-121 0 -226.5 60.5t-169 177.5t-63.5 283zM352 498q0 -147 80 -224t199 -77t198.5 76.5t79.5 224.5v20 q0 147 -78.5 224t-199.5 77q-119 0 -199 -76.5t-80 -224.5v-20z" />
<glyph unicode="e" horiz-adv-x="1181" d="M94 496v24q0 160 63.5 277.5t178.5 182t266 64.5q150 0 260.5 -66.5t172 -184t61.5 -273.5v-88h-740q4 -104 78 -169.5t180 -65.5q109 0 160 47t78 104l211 -110q-29 -53 -83 -116t-144.5 -107t-229.5 -44q-152 0 -267.5 64.5t-180 182.5t-64.5 278zM358 625h476 q-8 88 -71 141t-163 53q-104 0 -166 -53t-76 -141z" />
<glyph unicode="f" horiz-adv-x="892" d="M53 803v213h258v188q0 104 62.5 167t163.5 63h266v-213h-176q-57 0 -58 -62v-143h267v-213h-267v-803h-258v803h-258z" />
<glyph unicode="g" horiz-adv-x="1306" d="M94 504v33q0 160 63.5 273.5t169 173.5t230.5 60q139 0 211 -49t104 -102h37v123h254v-1196q0 -104 -61.5 -167t-163.5 -63h-680v226h590q57 0 57 61v264h-37q-20 -33 -57 -66.5t-98.5 -56t-155.5 -22.5q-125 0 -230.5 60.5t-169 174t-63.5 273.5zM352 510 q0 -137 80 -213t199 -76t198.5 76t79.5 213v20q0 139 -78.5 214t-199.5 75q-119 0 -199 -74.5t-80 -214.5v-20z" />
<glyph unicode="h" horiz-adv-x="1261" d="M143 0v1434h258v-543h37q16 33 51 65.5t93.5 54t148.5 21.5q119 0 208 -54t138 -149.5t49 -222.5v-606h-258v586q0 115 -56 172t-161 57q-119 0 -184.5 -79t-65.5 -220v-516h-258z" />
<glyph unicode="i" horiz-adv-x="544" d="M107 1298q0 74 48 119t118 45q72 0 119 -45t47 -119t-47 -118.5t-119 -44.5q-70 0 -118 45t-48 118zM143 0v1016h258v-1016h-258z" />
<glyph unicode="j" horiz-adv-x="548" d="M-45 -188h135q57 0 57 61v1143h259v-1196q0 -104 -61.5 -167t-164.5 -63h-225v222zM111 1298q0 74 48 119t118 45q72 0 119 -45t47 -119t-47 -118.5t-119 -44.5q-70 0 -118 45t-48 118z" />
<glyph unicode="k" horiz-adv-x="1155" d="M143 0v1434h258v-793h37l336 375h336l-469 -492l485 -524h-331l-357 403h-37v-403h-258z" />
<glyph unicode="l" horiz-adv-x="544" d="M143 0v1434h258v-1434h-258z" />
<glyph unicode="m" horiz-adv-x="1748" d="M143 0v1016h254v-111h37q27 51 88.5 89t161.5 38q109 0 174.5 -42t99.5 -109h37q35 66 98.5 108.5t180.5 42.5q94 0 171 -40t123 -120.5t46 -203.5v-668h-258v649q0 84 -43 126t-121 42q-88 0 -136 -56t-48 -161v-600h-258v649q0 84 -43 126t-121 42q-88 0 -136.5 -56 t-48.5 -161v-600h-258z" />
<glyph unicode="n" horiz-adv-x="1261" d="M143 0v1016h254v-133h37q25 53 92.5 101t204.5 48q119 0 208 -54t138 -149.5t49 -222.5v-606h-258v586q0 115 -56 172t-161 57q-119 0 -184.5 -79t-65.5 -220v-516h-258z" />
<glyph unicode="o" horiz-adv-x="1253" d="M94 492v32q0 164 69.5 281t190.5 178t273 61t272.5 -61t190 -178t69.5 -281v-32q0 -164 -69.5 -281t-190 -178.5t-272.5 -61.5t-273 61.5t-190.5 178.5t-69.5 281zM352 498q0 -143 78 -220t197 -77t196.5 76.5t77.5 220.5v20q0 143 -76.5 220t-197.5 77 q-119 0 -197 -76.5t-78 -220.5v-20z" />
<glyph unicode="p" horiz-adv-x="1306" d="M143 -410v1426h254v-123h37q35 59 108.5 105t211.5 46q123 0 227 -60t167.5 -177t63.5 -283v-32q0 -166 -63.5 -283t-167.5 -177.5t-227 -60.5q-92 0 -154.5 21.5t-100.5 55.5t-61 69h-37v-527h-258zM397 498q0 -147 80 -224t199 -77q121 0 199.5 76.5t78.5 224.5v20 q0 147 -79.5 224t-198.5 77t-199 -76.5t-80 -224.5v-20z" />
<glyph unicode="q" horiz-adv-x="1306" d="M94 492v32q0 166 63.5 283t169 177t226.5 60q139 0 212 -46t107 -105h37v123h254v-1426h-258v527h-37q-20 -35 -59 -69t-101.5 -55.5t-154.5 -21.5q-123 0 -227.5 60.5t-168 177.5t-63.5 283zM352 498q0 -147 80 -224t199 -77q121 0 199.5 76.5t78.5 224.5v20 q0 147 -79.5 224t-198.5 77t-199 -76.5t-80 -224.5v-20z" />
<glyph unicode="r" horiz-adv-x="811" d="M143 0v1016h254v-115h37q23 61 75 90t122 29h123v-229h-127q-98 0 -162 -52.5t-64 -160.5v-578h-258z" />
<glyph unicode="s" horiz-adv-x="1073" d="M86 303l238 62q14 -72 48 -113t84 -58.5t109 -17.5q90 0 133 32t43 79t-41 72.5t-131 41.5l-57 11q-106 20 -194.5 56t-141.5 99.5t-53 163.5q0 152 110.5 232.5t290.5 80.5q170 0 283 -75.5t147 -198.5l-239 -74q-16 78 -66.5 111t-124.5 33t-112.5 -26t-38.5 -71 q0 -49 41 -72.5t110 -35.5l58 -10q115 -20 208 -54t147 -96.5t54 -169.5q0 -160 -115.5 -247t-310.5 -87q-199 0 -325.5 86t-153.5 246z" />
<glyph unicode="t" horiz-adv-x="933" d="M53 803v213h254v315h258v-315h279v-213h-279v-529q0 -61 58 -61h196v-213h-287q-100 0 -162.5 62.5t-62.5 166.5v574h-254z" />
<glyph unicode="u" horiz-adv-x="1261" d="M135 410v606h258v-586q0 -115 56.5 -172t160.5 -57q119 0 184.5 78.5t65.5 220.5v516h258v-1016h-254v133h-37q-25 -51 -92.5 -100t-204.5 -49q-119 0 -208 54t-138 150.5t-49 221.5z" />
<glyph unicode="v" horiz-adv-x="1122" d="M33 1016h274l236 -828h37l235 828h275l-324 -1016h-410z" />
<glyph unicode="w" horiz-adv-x="1605" d="M82 1016h256l90 -842h37l131 842h414l131 -842h37l90 842h256l-144 -1016h-428l-131 842h-37l-131 -842h-428z" />
<glyph unicode="x" horiz-adv-x="1212" d="M53 0l369 512l-365 504h299l232 -338h37l231 338h299l-364 -504l368 -512h-303l-231 342h-37l-232 -342h-303z" />
<glyph unicode="y" horiz-adv-x="1261" d="M135 410v606h258v-586q0 -115 56.5 -172t160.5 -57q119 0 184.5 78.5t65.5 220.5v516h258v-1196q0 -104 -61.5 -167t-163.5 -63h-639v226h553q57 0 57 61v256h-37q-16 -35 -51 -69.5t-94 -57t-152 -22.5q-119 0 -208 54t-138 150.5t-49 221.5z" />
<glyph unicode="z" horiz-adv-x="1060" d="M106 0v307l558 463v33h-537v213h819v-307l-557 -463v-33h574v-213h-857z" />
<glyph unicode="{" horiz-adv-x="954" d="M74 399v246h235q55 0 56 60v634q0 92 58 150.5t150 58.5h349v-221h-252q-55 0 -56 -61v-561q0 -70 -44 -117t-115 -47h-33v-37h33q72 0 115.5 -47t43.5 -117v-561q0 -61 56 -62h252v-221h-349q-92 0 -150 58.5t-58 150.5v635q0 59 -56 59h-235z" />
<glyph unicode="|" horiz-adv-x="528" d="M135 -504v2155h258v-2155h-258z" />
<glyph unicode="}" horiz-adv-x="954" d="M33 -283h252q55 0 55 62v561q0 70 44 117t116 47h32v37h-32q-72 0 -116 47t-44 117v561q0 61 -55 61h-252v221h348q92 0 150.5 -58t58.5 -151v-634q0 -59 55 -60h236v-246h-236q-55 0 -55 -59v-635q0 -92 -58.5 -150.5t-150.5 -58.5h-348v221z" />
<glyph unicode="~" d="M88 676l246 184q41 33 87 54.5t105 21.5t99.5 -23.5t66.5 -60.5q29 -39 45.5 -55.5t42.5 -16.5q25 0 46.5 13.5t47.5 33.5l162 121l144 -190l-246 -185q-41 -33 -87 -54t-106 -21q-59 0 -99 23.5t-67 60.5q-29 41 -44 56t-44 15q-25 0 -46 -13t-48 -34l-162 -121z" />
<glyph unicode="&#xa1;" horiz-adv-x="610" d="M111 850q0 86 56 140t140 54q82 0 137.5 -54t55.5 -140t-55.5 -140.5t-137.5 -54.5q-84 0 -140 54.5t-56 140.5zM174 -410v955h262v-955h-262z" />
<glyph unicode="&#xa2;" horiz-adv-x="1224" d="M102 494v28q0 166 70 283t189.5 178t267.5 61q145 0 249.5 -51t169 -140t85.5 -202l-250 -53q-8 61 -37 110.5t-81 78t-130 28.5t-140.5 -33.5t-98.5 -100.5t-36 -163v-20q0 -96 36 -163t98.5 -100.5t140.5 -33.5q117 0 177 60.5t77 158.5l250 -60q-27 -109 -91.5 -197.5 t-169 -140t-249.5 -51.5q-147 0 -267 61.5t-190 178.5t-70 283zM518 -238v1491h230v-1491h-230z" />
<glyph unicode="&#xa3;" horiz-adv-x="1306" d="M106 0v233h152v353h-143v209h143v217q0 213 126 331.5t341 118.5t341 -118.5t126 -331.5v-127h-258v135q0 98 -56.5 153.5t-152.5 55.5q-94 0 -151.5 -55.5t-57.5 -153.5v-225h205v-209h-205v-353h684v-233h-1094z" />
<glyph unicode="&#xa4;" d="M78 317l125 125q-39 59 -59.5 128t-20.5 147q0 76 20.5 145.5t59.5 128.5l-125 125l158 158l124 -125q59 37 128 58.5t147 21.5q76 0 145.5 -21.5t128.5 -58.5l125 125l158 -158l-125 -125q37 -59 58.5 -128.5t21.5 -145.5q0 -78 -21.5 -146.5t-58.5 -128.5l125 -125 l-158 -157l-125 125q-59 -39 -128.5 -59.5t-145.5 -20.5q-78 0 -146.5 20.5t-128.5 59.5l-124 -125zM344 717q0 -80 39 -146.5t104.5 -105.5t147.5 -39t147.5 39t104.5 104.5t39 147.5t-39 147.5t-104.5 104.5t-147.5 39q-80 0 -146.5 -39t-105.5 -104.5t-39 -147.5z" />
<glyph unicode="&#xa5;" d="M-4 1434h307l313 -611h37l314 611h307l-461 -867l-43 -20v-547h-270v547l-43 20zM170 217v209h930v-209h-930zM170 537v208h930v-208h-930z" />
<glyph unicode="&#xa6;" horiz-adv-x="528" d="M135 397h258v-901h-258v901zM135 750v901h258v-901h-258z" />
<glyph unicode="&#xa7;" horiz-adv-x="970" d="M61 377v29h222v-25q0 -90 50 -145.5t156 -55.5q88 0 131.5 33t43.5 98q0 61 -41 95t-150 55q-172 31 -269.5 110.5t-97.5 227.5q0 49 11.5 91t32.5 77q-43 68 -44 159v13q0 102 48.5 173.5t131.5 110.5t189 39q176 0 286.5 -91t110.5 -249v-45h-221v25q0 41 -16.5 75.5 t-54 55t-99.5 20.5q-70 0 -109.5 -30.5t-39.5 -83.5q0 -66 59.5 -95.5t147.5 -46.5q184 -33 267 -115.5t83 -217.5q0 -102 -37 -177q18 -33 27.5 -70.5t9.5 -80.5v-17q0 -154 -103.5 -251t-293.5 -97q-199 0 -315 112t-116 294zM334 799q0 -63 60.5 -92t144.5 -45 q35 -6 61 -12.5t55 -16.5q2 4 2 9v13q0 53 -37.5 88t-146.5 54q-35 6 -67.5 15t-65.5 19q-6 -12 -6 -32z" />
<glyph unicode="&#xa8;" horiz-adv-x="917" d="M82 1290q0 76 48 120t118 44q72 0 119 -44t47 -120t-47 -120t-119 -44q-70 0 -118 44t-48 120zM504 1290q0 76 48 120t118 44q72 0 119 -44t47 -120t-47 -120t-119 -44q-70 0 -118 44t-48 120z" />
<glyph unicode="&#xa9;" horiz-adv-x="1474" d="M102 594v246q0 195 75 333t213 211.5t327 73.5h41q188 0 326.5 -73.5t213 -212t74.5 -332.5v-246q0 -195 -74.5 -333t-213 -212t-326.5 -74h-41q-188 0 -326.5 74t-213.5 212t-75 333zM311 590q0 -203 106.5 -310.5t303.5 -107.5h33q197 0 303 107.5t106 310.5v254 q0 203 -106.5 310.5t-302.5 107.5h-33q-197 0 -303.5 -107.5t-106.5 -310.5v-254zM455 623v192q0 147 77.5 227t208.5 80q145 0 214 -78.5t69 -207.5v-29h-193v41q0 41 -21.5 65.5t-68.5 24.5q-45 0 -67.5 -24.5t-22.5 -65.5v-258q0 -41 22.5 -65.5t67.5 -24.5 q47 0 68.5 24.5t21.5 65.5v41h193v-29q0 -129 -69 -208t-214 -79q-131 0 -208.5 80t-77.5 228z" />
<glyph unicode="&#xaa;" horiz-adv-x="858" d="M70 926q0 109 75.5 167t194.5 58h182v33q0 53 -27.5 86t-93.5 33q-63 0 -96 -31t-43 -72l-166 55q23 82 99.5 140.5t212.5 58.5q135 0 219 -68.5t84 -209.5v-269q0 -43 39 -43h67v-147h-135q-53 0 -85 24.5t-36 67.5h-24q-6 -18 -29 -45t-65.5 -47.5t-112.5 -20.5 q-113 0 -186.5 58.5t-73.5 171.5zM258 934q0 -37 29 -61.5t80 -24.5q72 0 113.5 35t41.5 110v23h-164q-45 0 -72.5 -23.5t-27.5 -58.5z" />
<glyph unicode="&#xab;" horiz-adv-x="1474" d="M106 369v278l603 357h12v-279l-371 -199v-37l371 -198v-279h-12zM721 369v278l602 357h12v-279l-370 -199v-37l370 -198v-279h-12z" />
<glyph unicode="&#xac;" d="M205 600v234h860v-502h-229v268h-631z" />
<glyph unicode="&#xad;" horiz-adv-x="884" d="M139 406v233h606v-233h-606z" />
<glyph unicode="&#xae;" horiz-adv-x="1056" d="M98 1036q0 125 56.5 221.5t154 150.5t219.5 54q123 0 220.5 -54t153.5 -150.5t56 -221.5t-56 -221t-153.5 -150.5t-220.5 -54.5t-220 54.5t-153.5 150.5t-56.5 221zM188 1036q0 -154 93 -247t247 -93t247 93.5t93 246.5q0 154 -93 247t-247 93t-247 -93t-93 -247z M381 813v455h174q76 0 115 -37t39 -86q0 -39 -19.5 -68.5t-62.5 -46.5v-20q35 -2 50 -22.5t15 -55.5v-119h-86v123q0 43 -43 43h-96v-166h-86zM467 1057h88q35 0 51.5 20.5t16.5 46.5q0 29 -16.5 47.5t-51.5 18.5h-88v-133z" />
<glyph unicode="&#xaf;" horiz-adv-x="835" d="M82 1159v205h672v-205h-672z" />
<glyph unicode="&#xb0;" horiz-adv-x="806" d="M66 1137q0 94 45 167.5t121.5 115.5t170.5 42t171 -42t122 -115.5t45 -169.5q0 -94 -45 -169t-122 -117t-171 -42t-170.5 42t-121.5 116.5t-45 171.5zM270 1135q0 -57 38 -94t95 -37t95.5 36.5t38.5 94.5q0 59 -38 95t-96 36q-57 0 -95 -36t-38 -95z" />
<glyph unicode="&#xb1;" d="M207 0v233h856v-233h-856zM207 602v234h307v270h242v-270h307v-234h-307v-270h-242v270h-307z" />
<glyph unicode="&#xb2;" horiz-adv-x="745" d="M53 717v90q0 123 65.5 192.5t203.5 100.5q90 20 132 47t42 70q0 41 -33 63.5t-82 22.5t-86 -25.5t-41 -89.5l-193 14q10 125 98.5 190.5t221.5 65.5t220 -66.5t87 -176.5q0 -111 -76.5 -166.5t-208.5 -83.5q-82 -16 -113.5 -37t-31.5 -55h426v-156h-631z" />
<glyph unicode="&#xb3;" horiz-adv-x="743" d="M41 942l190 21q6 -51 46 -83t94 -32q59 0 93 31t34 74q0 45 -34 68.5t-97 23.5h-136v135l175 74v28h-351v152h631v-160l-217 -102v-29q104 -4 162.5 -52t58.5 -147q0 -74 -42 -130t-114.5 -89t-162.5 -33q-135 0 -227.5 65.5t-102.5 184.5z" />
<glyph unicode="&#xb4;" horiz-adv-x="606" d="M82 1130l151 304h291l-217 -304h-225z" />
<glyph unicode="&#xb5;" horiz-adv-x="1277" d="M135 -410v1426h258v-590q0 -106 56.5 -165.5t160.5 -59.5q119 0 180.5 73.5t61.5 208.5v533h258v-742q0 -61 57 -61h82v-213h-172q-76 0 -124 37t-52 106v9h-37q-27 -72 -95.5 -120t-176.5 -48q-66 0 -106 17t-64 36h-37v-447h-250z" />
<glyph unicode="&#xb6;" horiz-adv-x="1257" d="M33 995v25q0 123 57 216t158.5 145.5t230.5 52.5h643v-1434h-221v1225h-160v-1225h-221v582h-53q-127 0 -225.5 54t-153.5 147.5t-55 211.5zM254 1001q0 -96 59.5 -153t141.5 -57h65v434h-65q-88 0 -144.5 -57.5t-56.5 -153.5v-13z" />
<glyph unicode="&#xb7;" horiz-adv-x="446" d="M29 586q0 86 56 140t140 54q82 0 137.5 -54t55.5 -140t-55.5 -140.5t-137.5 -54.5q-84 0 -140 54.5t-56 140.5z" />
<glyph unicode="&#xb8;" horiz-adv-x="671" d="M82 -399l41 153q39 -12 83 -22.5t99 -10.5q41 0 67.5 14.5t26.5 45.5q0 29 -23.5 42t-76.5 13h-78l15 205h176l-9 -121q78 0 132.5 -43t54.5 -127q0 -66 -39 -107.5t-101.5 -61t-132.5 -19.5q-66 0 -128 12t-107 27z" />
<glyph unicode="&#xb9;" horiz-adv-x="536" d="M33 1114l78 320h344v-717h-189v557h-28l-31 -160h-174z" />
<glyph unicode="&#xba;" horiz-adv-x="892" d="M66 1075q0 182 104 280.5t276 98.5t276.5 -98.5t104.5 -280.5q0 -180 -104.5 -279.5t-276.5 -99.5t-276 99.5t-104 279.5zM258 1075q0 -111 51 -167t137 -56t137.5 56.5t51.5 166.5q0 111 -51.5 167t-137.5 56t-137 -56t-51 -167z" />
<glyph unicode="&#xbb;" horiz-adv-x="1474" d="M139 12v279l371 198v37l-371 199v279h13l602 -357v-278l-602 -357h-13zM754 12v279l370 198v37l-370 199v279h12l602 -357v-278l-602 -357h-12z" />
<glyph unicode="&#xbc;" horiz-adv-x="1699" d="M33 1114l78 320h344v-717h-189v557h-28l-31 -160h-174zM160 92l1104 1362l137 -113l-1104 -1361zM938 145v181l272 391h334v-416h123v-156h-123v-145h-192v145h-414zM1143 301h209v285h-29l-180 -260v-25z" />
<glyph unicode="&#xbd;" horiz-adv-x="1687" d="M33 1114l78 320h344v-717h-189v557h-28l-31 -160h-174zM160 92l1104 1362l137 -113l-1104 -1361zM995 0v90q0 123 65.5 192.5t203.5 100.5q90 20 132 47t42 70q0 41 -33 63.5t-82 22.5t-86 -25.5t-41 -89.5l-193 14q10 125 98.5 190.5t221.5 65.5t220 -66.5t87 -176.5 q0 -111 -76.5 -166.5t-208.5 -83.5q-82 -16 -113.5 -37t-31.5 -55h426v-156h-631z" />
<glyph unicode="&#xbe;" horiz-adv-x="1824" d="M41 942l190 21q6 -51 46 -83t94 -32q59 0 93 31t34 74q0 45 -34 68.5t-97 23.5h-136v135l175 74v28h-351v152h631v-160l-217 -102v-29q104 -4 162.5 -52t58.5 -147q0 -74 -42 -130t-114.5 -89t-162.5 -33q-135 0 -227.5 65.5t-102.5 184.5zM285 92l1104 1362l137 -113 l-1104 -1361zM1063 145v181l272 391h334v-416h123v-156h-123v-145h-192v145h-414zM1268 301h209v285h-29l-180 -260v-25z" />
<glyph unicode="&#xbf;" horiz-adv-x="1183" d="M86 -20q0 123 45 201.5t113.5 127.5t140.5 82l35 17q37 16 51 39.5t14 68.5v29h271v-41q0 -104 -41 -172t-137 -113l-35 -16q-92 -43 -141.5 -91.5t-49.5 -131.5q0 -59 30 -101.5t83 -65t125 -22.5q74 0 132 24.5t92 74t34 122.5v45h266v-41q0 -141 -69.5 -242.5 t-188.5 -156.5t-266 -55q-145 0 -259 53t-179.5 147.5t-65.5 217.5zM418 850q0 86 56 140t138 54q84 0 139.5 -54t55.5 -140t-55.5 -140.5t-139.5 -54.5q-82 0 -138 54.5t-56 140.5z" />
<glyph unicode="&#xc0;" horiz-adv-x="1298" d="M37 0l377 1434h471l377 -1434h-279l-78 315h-512l-78 -315h-278zM367 1819h299l143 -267h-229zM457 565h385l-174 699h-37z" />
<glyph unicode="&#xc1;" horiz-adv-x="1298" d="M37 0l377 1434h471l377 -1434h-279l-78 315h-512l-78 -315h-278zM457 565h385l-174 699h-37zM490 1552l143 267h299l-213 -267h-229z" />
<glyph unicode="&#xc2;" horiz-adv-x="1298" d="M37 0l377 1434h471l377 -1434h-279l-78 315h-512l-78 -315h-278zM256 1552l233 267h320l233 -267h-274l-100 136h-37l-101 -136h-274zM457 565h385l-174 699h-37z" />
<glyph unicode="&#xc3;" horiz-adv-x="1298" d="M37 0l377 1434h471l377 -1434h-279l-78 315h-512l-78 -315h-278zM279 1632l65 88q37 49 79 76t100 27q49 0 79.5 -14.5t65.5 -43.5q20 -16 42 -33.5t52 -17.5q33 0 53.5 20.5t38.5 43.5l35 45l131 -105l-65 -88q-37 -49 -79 -75.5t-99 -26.5q-49 0 -80 14t-66 43 q-20 16 -41.5 33.5t-52.5 17.5q-33 0 -53.5 -20.5t-38.5 -42.5l-35 -45zM457 565h385l-174 699h-37z" />
<glyph unicode="&#xc4;" horiz-adv-x="1298" d="M37 0l377 1434h471l377 -1434h-279l-78 315h-512l-78 -315h-278zM256 1708q0 76 48 120t118 44q72 0 119 -44t47 -120t-47 -120t-119 -44q-70 0 -118 44t-48 120zM457 565h385l-174 699h-37zM711 1708q0 76 48 120t117 44q72 0 119 -44t47 -120t-47 -120t-119 -44 q-70 0 -117.5 44t-47.5 120z" />
<glyph unicode="&#xc5;" horiz-adv-x="1298" d="M37 0l377 1434h471l377 -1434h-279l-78 315h-512l-78 -315h-278zM436 1737q0 88 61.5 146.5t151.5 58.5t151.5 -57.5t61.5 -147.5q0 -94 -64.5 -149.5t-148.5 -55.5q-88 0 -150.5 58.5t-62.5 146.5zM457 565h385l-174 699h-37zM587 1737q0 -27 17.5 -44.5t44.5 -17.5 q29 0 45 17.5t16 44.5t-16 44t-45 17q-27 0 -44.5 -17.5t-17.5 -43.5z" />
<glyph unicode="&#xc6;" horiz-adv-x="1681" d="M37 0l479 1434h252v-144h-37l-235 -725h272v-250h-352l-103 -315h-276zM768 0v1434h836v-246h-570v-342h512v-246h-512v-354h582v-246h-848z" />
<glyph unicode="&#xc7;" horiz-adv-x="1318" d="M102 545v344q0 276 156 424.5t422 148.5q264 0 408.5 -144t144.5 -396v-13h-266v21q0 127 -71 209t-216 82q-143 0 -225 -88.5t-82 -239.5v-352q0 -150 82 -239t225 -89q145 0 216 83t71 208v37h266v-29q0 -252 -144.5 -396.5t-408.5 -144.5q-266 0 -422 148.5 t-156 425.5zM444 -399l41 153q39 -12 83 -22.5t99 -10.5q41 0 67.5 14.5t26.5 45.5q0 29 -23.5 42t-76.5 13h-78l15 205h176l-9 -121q78 0 132.5 -43t54.5 -127q0 -66 -39 -107.5t-101.5 -61t-132.5 -19.5q-66 0 -128 12t-107 27z" />
<glyph unicode="&#xc8;" horiz-adv-x="1134" d="M135 0v1434h922v-246h-651v-342h593v-246h-593v-354h663v-246h-934zM324 1819h299l143 -267h-229z" />
<glyph unicode="&#xc9;" horiz-adv-x="1134" d="M135 0v1434h922v-246h-651v-342h593v-246h-593v-354h663v-246h-934zM447 1552l143 267h299l-213 -267h-229z" />
<glyph unicode="&#xca;" horiz-adv-x="1134" d="M135 0v1434h922v-246h-651v-342h593v-246h-593v-354h663v-246h-934zM213 1552l233 267h320l233 -267h-274l-100 136h-37l-101 -136h-274z" />
<glyph unicode="&#xcb;" horiz-adv-x="1134" d="M135 0v1434h922v-246h-651v-342h593v-246h-593v-354h663v-246h-934zM213 1708q0 76 48 120t118 44q72 0 119 -44t47 -120t-47 -120t-119 -44q-70 0 -118 44t-48 120zM668 1708q0 76 48 120t117 44q72 0 119 -44t47 -120t-47 -120t-119 -44q-70 0 -117.5 44t-47.5 120z " />
<glyph unicode="&#xcc;" horiz-adv-x="540" d="M-12 1819h299l143 -267h-229zM135 0v1434h271v-1434h-271z" />
<glyph unicode="&#xcd;" horiz-adv-x="540" d="M111 1552l143 267h299l-213 -267h-229zM135 0v1434h271v-1434h-271z" />
<glyph unicode="&#xce;" horiz-adv-x="540" d="M-123 1552l233 267h320l233 -267h-274l-100 136h-37l-101 -136h-274zM135 0v1434h271v-1434h-271z" />
<glyph unicode="&#xcf;" horiz-adv-x="540" d="M-123 1708q0 76 48 120t118 44q72 0 119 -44t47 -120t-47 -120t-119 -44q-70 0 -118 44t-48 120zM135 0v1434h271v-1434h-271zM332 1708q0 76 48 120t117 44q72 0 119 -44t47 -120t-47 -120t-119 -44q-70 0 -117.5 44t-47.5 120z" />
<glyph unicode="&#xd0;" horiz-adv-x="1363" d="M94 0v238h189v958h-189v238h590q289 0 439.5 -146.5t150.5 -435.5v-270q0 -289 -150.5 -435.5t-439.5 -146.5h-590zM94 627v184h696v-184h-696zM553 246h135q164 0 240 86t76 241v287q0 158 -76 243t-240 85h-135v-942z" />
<glyph unicode="&#xd1;" horiz-adv-x="1372" d="M135 0v1434h514l285 -1250h37v1250h266v-1434h-514l-285 1249h-37v-1249h-266zM313 1632l65 88q37 49 79 76t100 27q49 0 79.5 -14.5t65.5 -43.5q20 -16 42 -33.5t52 -17.5q33 0 53.5 20.5t38.5 43.5l35 45l131 -105l-65 -88q-37 -49 -79 -75.5t-99 -26.5q-49 0 -80 14 t-66 43q-20 16 -41.5 33.5t-52.5 17.5q-33 0 -53.5 -20.5t-38.5 -42.5l-35 -45z" />
<glyph unicode="&#xd2;" horiz-adv-x="1384" d="M102 545v344q0 276 160 424.5t430 148.5t430 -148.5t160 -424.5v-344q0 -276 -160 -425t-430 -149t-430 148.5t-160 425.5zM373 537q0 -147 84.5 -235.5t234.5 -88.5q152 0 236 88t84 236v360q0 147 -84 235.5t-236 88.5q-150 0 -234.5 -88.5t-84.5 -235.5v-360z M410 1819h299l143 -267h-229z" />
<glyph unicode="&#xd3;" horiz-adv-x="1384" d="M102 545v344q0 276 160 424.5t430 148.5t430 -148.5t160 -424.5v-344q0 -276 -160 -425t-430 -149t-430 148.5t-160 425.5zM373 537q0 -147 84.5 -235.5t234.5 -88.5q152 0 236 88t84 236v360q0 147 -84 235.5t-236 88.5q-150 0 -234.5 -88.5t-84.5 -235.5v-360z M533 1552l143 267h299l-213 -267h-229z" />
<glyph unicode="&#xd4;" horiz-adv-x="1384" d="M102 545v344q0 276 160 424.5t430 148.5t430 -148.5t160 -424.5v-344q0 -276 -160 -425t-430 -149t-430 148.5t-160 425.5zM299 1552l233 267h320l233 -267h-274l-100 136h-37l-101 -136h-274zM373 537q0 -147 84.5 -235.5t234.5 -88.5q152 0 236 88t84 236v360 q0 147 -84 235.5t-236 88.5q-150 0 -234.5 -88.5t-84.5 -235.5v-360z" />
<glyph unicode="&#xd5;" horiz-adv-x="1384" d="M102 545v344q0 276 160 424.5t430 148.5t430 -148.5t160 -424.5v-344q0 -276 -160 -425t-430 -149t-430 148.5t-160 425.5zM322 1632l65 88q37 49 79 76t100 27q49 0 79.5 -14.5t65.5 -43.5q20 -16 42 -33.5t52 -17.5q33 0 53.5 20.5t38.5 43.5l35 45l131 -105l-65 -88 q-37 -49 -79 -75.5t-99 -26.5q-49 0 -80 14t-66 43q-20 16 -41.5 33.5t-52.5 17.5q-33 0 -53.5 -20.5t-38.5 -42.5l-35 -45zM373 537q0 -147 84.5 -235.5t234.5 -88.5q152 0 236 88t84 236v360q0 147 -84 235.5t-236 88.5q-150 0 -234.5 -88.5t-84.5 -235.5v-360z" />
<glyph unicode="&#xd6;" horiz-adv-x="1384" d="M102 545v344q0 276 160 424.5t430 148.5t430 -148.5t160 -424.5v-344q0 -276 -160 -425t-430 -149t-430 148.5t-160 425.5zM299 1708q0 76 48 120t118 44q72 0 119 -44t47 -120t-47 -120t-119 -44q-70 0 -118 44t-48 120zM373 537q0 -147 84.5 -235.5t234.5 -88.5 q152 0 236 88t84 236v360q0 147 -84 235.5t-236 88.5q-150 0 -234.5 -88.5t-84.5 -235.5v-360zM754 1708q0 76 48 120t117 44q72 0 119 -44t47 -120t-47 -120t-119 -44q-70 0 -117.5 44t-47.5 120z" />
<glyph unicode="&#xd7;" d="M197 449l270 268l-270 268l165 166l273 -268l272 268l166 -166l-270 -268l270 -268l-166 -166l-272 268l-273 -268z" />
<glyph unicode="&#xd8;" horiz-adv-x="1384" d="M102 545v344q0 276 160 424.5t430 148.5t430 -148.5t160 -424.5v-344q0 -276 -160 -425t-430 -149t-430 148.5t-160 425.5zM254 -121l709 1720l170 -69l-709 -1720zM373 537q0 -147 84.5 -235.5t234.5 -88.5q152 0 236 88t84 236v360q0 147 -84 235.5t-236 88.5 q-150 0 -234.5 -88.5t-84.5 -235.5v-360z" />
<glyph unicode="&#xd9;" horiz-adv-x="1376" d="M127 504v930h270v-938q0 -131 75 -207t216 -76t216 76t75 207v938h270v-930q0 -164 -66.5 -284t-192.5 -184.5t-302 -64.5t-302 64.5t-192.5 184.5t-66.5 284zM406 1819h299l143 -267h-229z" />
<glyph unicode="&#xda;" horiz-adv-x="1376" d="M127 504v930h270v-938q0 -131 75 -207t216 -76t216 76t75 207v938h270v-930q0 -164 -66.5 -284t-192.5 -184.5t-302 -64.5t-302 64.5t-192.5 184.5t-66.5 284zM528 1552l143 267h299l-213 -267h-229z" />
<glyph unicode="&#xdb;" horiz-adv-x="1376" d="M127 504v930h270v-938q0 -131 75 -207t216 -76t216 76t75 207v938h270v-930q0 -164 -66.5 -284t-192.5 -184.5t-302 -64.5t-302 64.5t-192.5 184.5t-66.5 284zM295 1552l233 267h320l233 -267h-274l-100 136h-37l-101 -136h-274z" />
<glyph unicode="&#xdc;" horiz-adv-x="1376" d="M127 504v930h270v-938q0 -131 75 -207t216 -76t216 76t75 207v938h270v-930q0 -164 -66.5 -284t-192.5 -184.5t-302 -64.5t-302 64.5t-192.5 184.5t-66.5 284zM295 1708q0 76 48 120t118 44q72 0 119 -44t47 -120t-47 -120t-119 -44q-70 0 -118 44t-48 120zM750 1708 q0 76 48 120t117 44q72 0 119 -44t47 -120t-47 -120t-119 -44q-70 0 -117.5 44t-47.5 120z" />
<glyph unicode="&#xdd;" horiz-adv-x="1277" d="M16 1434h301l304 -615h36l304 615h301l-488 -940v-494h-270v494zM479 1552l143 267h299l-213 -267h-229z" />
<glyph unicode="&#xde;" horiz-adv-x="1236" d="M135 0v1434h271v-1434h-271zM406 283v245h292q96 0 155.5 53.5t59.5 145.5v21q0 92 -59 145t-156 53h-292v246h319q135 0 238.5 -54.5t162 -152.5t58.5 -233v-29q0 -133 -60.5 -232.5t-164 -153.5t-234.5 -54h-319z" />
<glyph unicode="&#xdf;" horiz-adv-x="1333" d="M143 0v881q0 184 70 314t192.5 198.5t282.5 68.5q127 0 227.5 -44t157.5 -121.5t57 -176.5q0 -88 -30.5 -150.5t-80.5 -106.5t-106 -81q-16 -10 -25 -20t-9 -25q0 -29 53 -47l51 -18q86 -31 154.5 -74t107.5 -108.5t39 -165.5t-49 -180.5t-141.5 -126.5t-221.5 -46 t-217 44t-138 111t-68 134l233 76q16 -70 62.5 -113t127.5 -43q74 0 116 42t42 104q0 41 -18.5 68.5t-53 47t-84.5 35.5l-86 31q-90 33 -132 84t-42 119q0 72 34 117.5t100 93.5q49 35 89 81t40 109q0 59 -52.5 96t-136.5 37q-68 0 -134.5 -33.5t-109.5 -111.5t-43 -211 v-889h-258z" />
<glyph unicode="&#xe0;" horiz-adv-x="1183" d="M78 297q0 104 50 175t139 106.5t204 35.5h279v58q0 72 -45.5 118t-143.5 46q-96 0 -143 -44t-62 -114l-237 80q25 78 79 142.5t145 104t222 39.5q201 0 317.5 -100t116.5 -291v-379q0 -61 58 -61h82v-213h-172q-76 0 -125 37t-49 98v2h-39q-8 -25 -37 -64.5t-90.5 -70.5 t-167.5 -31q-109 0 -195 38t-136 111t-50 177zM289 1434h291l151 -304h-225zM336 305q0 -55 43 -90t125 -35q109 0 177.5 60.5t68.5 160.5v21h-261q-72 0 -112.5 -31t-40.5 -86z" />
<glyph unicode="&#xe1;" horiz-adv-x="1183" d="M78 297q0 104 50 175t139 106.5t204 35.5h279v58q0 72 -45.5 118t-143.5 46q-96 0 -143 -44t-62 -114l-237 80q25 78 79 142.5t145 104t222 39.5q201 0 317.5 -100t116.5 -291v-379q0 -61 58 -61h82v-213h-172q-76 0 -125 37t-49 98v2h-39q-8 -25 -37 -64.5t-90.5 -70.5 t-167.5 -31q-109 0 -195 38t-136 111t-50 177zM336 305q0 -55 43 -90t125 -35q109 0 177.5 60.5t68.5 160.5v21h-261q-72 0 -112.5 -31t-40.5 -86zM420 1130l151 304h291l-217 -304h-225z" />
<glyph unicode="&#xe2;" horiz-adv-x="1183" d="M78 297q0 104 50 175t139 106.5t204 35.5h279v58q0 72 -45.5 118t-143.5 46q-96 0 -143 -44t-62 -114l-237 80q25 78 79 142.5t145 104t222 39.5q201 0 317.5 -100t116.5 -291v-379q0 -61 58 -61h82v-213h-172q-76 0 -125 37t-49 98v2h-39q-8 -25 -37 -64.5t-90.5 -70.5 t-167.5 -31q-109 0 -195 38t-136 111t-50 177zM182 1130l240 304h307l239 -304h-260l-114 152h-37l-115 -152h-260zM336 305q0 -55 43 -90t125 -35q109 0 177.5 60.5t68.5 160.5v21h-261q-72 0 -112.5 -31t-40.5 -86z" />
<glyph unicode="&#xe3;" horiz-adv-x="1183" d="M78 297q0 104 50 175t139 106.5t204 35.5h279v58q0 72 -45.5 118t-143.5 46q-96 0 -143 -44t-62 -114l-237 80q25 78 79 142.5t145 104t222 39.5q201 0 317.5 -100t116.5 -291v-379q0 -61 58 -61h82v-213h-172q-76 0 -125 37t-49 98v2h-39q-8 -25 -37 -64.5t-90.5 -70.5 t-167.5 -31q-109 0 -195 38t-136 111t-50 177zM205 1200l68 117q31 53 74.5 76.5t94.5 23.5q45 0 79 -17.5t67 -45.5q18 -16 39.5 -32.5t48.5 -16.5q31 0 50.5 20.5t33.5 42.5l33 49l141 -90l-68 -117q-31 -51 -73.5 -75.5t-96.5 -24.5q-45 0 -78.5 17.5t-66.5 46.5 q-18 16 -38.5 32.5t-49.5 16.5q-31 0 -49.5 -20.5t-34.5 -43.5l-33 -49zM336 305q0 -55 43 -90t125 -35q109 0 177.5 60.5t68.5 160.5v21h-261q-72 0 -112.5 -31t-40.5 -86z" />
<glyph unicode="&#xe4;" horiz-adv-x="1183" d="M78 297q0 104 50 175t139 106.5t204 35.5h279v58q0 72 -45.5 118t-143.5 46q-96 0 -143 -44t-62 -114l-237 80q25 78 79 142.5t145 104t222 39.5q201 0 317.5 -100t116.5 -291v-379q0 -61 58 -61h82v-213h-172q-76 0 -125 37t-49 98v2h-39q-8 -25 -37 -64.5t-90.5 -70.5 t-167.5 -31q-109 0 -195 38t-136 111t-50 177zM199 1290q0 76 48 120t118 44q72 0 119 -44t47 -120t-47 -120t-119 -44q-70 0 -118 44t-48 120zM336 305q0 -55 43 -90t125 -35q109 0 177.5 60.5t68.5 160.5v21h-261q-72 0 -112.5 -31t-40.5 -86zM621 1290q0 76 48 120 t118 44q72 0 119 -44t47 -120t-47 -120t-119 -44q-70 0 -118 44t-48 120z" />
<glyph unicode="&#xe5;" horiz-adv-x="1183" d="M78 297q0 104 50 175t139 106.5t204 35.5h279v58q0 72 -45.5 118t-143.5 46q-96 0 -143 -44t-62 -114l-237 80q25 78 79 142.5t145 104t222 39.5q201 0 317.5 -100t116.5 -291v-379q0 -61 58 -61h82v-213h-172q-76 0 -125 37t-49 98v2h-39q-8 -25 -37 -64.5t-90.5 -70.5 t-167.5 -31q-109 0 -195 38t-136 111t-50 177zM336 305q0 -55 43 -90t125 -35q109 0 177.5 60.5t68.5 160.5v21h-261q-72 0 -112.5 -31t-40.5 -86zM363 1309q0 88 61.5 146t151.5 58t151.5 -57t61.5 -147q0 -94 -64.5 -149.5t-148.5 -55.5q-88 0 -150.5 58.5t-62.5 146.5z M514 1309q0 -27 17.5 -44.5t44.5 -17.5q29 0 45 17.5t16 44.5t-16 44t-45 17q-27 0 -44.5 -17.5t-17.5 -43.5z" />
<glyph unicode="&#xe6;" horiz-adv-x="1789" d="M78 295q0 158 111.5 237.5t289.5 79.5h275v60q0 70 -51.5 117t-149.5 47q-94 0 -145.5 -45.5t-71.5 -112.5l-230 80q29 78 84.5 142.5t145.5 104t217 39.5q125 0 201.5 -38.5t126.5 -100.5h57l-45 -373l18 -378h-57q-18 -31 -59 -74t-116 -76t-196 -33q-178 0 -291.5 84 t-113.5 240zM332 305q0 -55 46 -90t134 -35q109 0 175.5 62.5t66.5 163.5v14h-256q-78 0 -122 -30t-44 -85zM774 516q0 150 60.5 269.5t166 189t242.5 69.5q147 0 249.5 -67.5t157 -181t54.5 -250.5v-125h-698q4 -96 69.5 -159.5t171.5 -63.5q104 0 158.5 44t81.5 89 l190 -137q-39 -55 -93 -106.5t-131.5 -83.5t-192.5 -32q-145 0 -255 74t-170.5 198t-60.5 273zM1008 612h442q-2 96 -61.5 151.5t-155.5 55.5q-102 0 -161.5 -56.5t-63.5 -150.5z" />
<glyph unicode="&#xe7;" horiz-adv-x="1200" d="M94 494v28q0 166 69.5 283t189.5 178t268 61q145 0 249.5 -51t169 -140t84.5 -202l-250 -53q-8 61 -36.5 110.5t-80.5 78t-130 28.5t-140.5 -33.5t-98.5 -100.5t-36 -163v-20q0 -96 36 -163t98.5 -100.5t140.5 -33.5q117 0 177 60.5t77 158.5l249 -60 q-27 -109 -91 -197.5t-168.5 -140t-249.5 -51.5q-147 0 -267.5 61.5t-190 178.5t-69.5 283zM385 -399l41 153q39 -12 83 -22.5t99 -10.5q41 0 67.5 14.5t26.5 45.5q0 29 -23.5 42t-76.5 13h-78l15 205h176l-9 -121q78 0 132.5 -43t54.5 -127q0 -66 -39 -107.5t-101.5 -61 t-132.5 -19.5q-66 0 -128 12t-107 27z" />
<glyph unicode="&#xe8;" horiz-adv-x="1181" d="M94 496v24q0 160 63.5 277.5t178.5 182t266 64.5q150 0 260.5 -66.5t172 -184t61.5 -273.5v-88h-740q4 -104 78 -169.5t180 -65.5q109 0 160 47t78 104l211 -110q-29 -53 -83 -116t-144.5 -107t-229.5 -44q-152 0 -267.5 64.5t-180 182.5t-64.5 278zM315 1434h291 l151 -304h-225zM358 625h476q-8 88 -71 141t-163 53q-104 0 -166 -53t-76 -141z" />
<glyph unicode="&#xe9;" horiz-adv-x="1181" d="M94 496v24q0 160 63.5 277.5t178.5 182t266 64.5q150 0 260.5 -66.5t172 -184t61.5 -273.5v-88h-740q4 -104 78 -169.5t180 -65.5q109 0 160 47t78 104l211 -110q-29 -53 -83 -116t-144.5 -107t-229.5 -44q-152 0 -267.5 64.5t-180 182.5t-64.5 278zM358 625h476 q-8 88 -71 141t-163 53q-104 0 -166 -53t-76 -141zM447 1130l151 304h291l-217 -304h-225z" />
<glyph unicode="&#xea;" horiz-adv-x="1181" d="M94 496v24q0 160 63.5 277.5t178.5 182t266 64.5q150 0 260.5 -66.5t172 -184t61.5 -273.5v-88h-740q4 -104 78 -169.5t180 -65.5q109 0 160 47t78 104l211 -110q-29 -53 -83 -116t-144.5 -107t-229.5 -44q-152 0 -267.5 64.5t-180 182.5t-64.5 278zM209 1130l240 304 h307l239 -304h-260l-114 152h-37l-115 -152h-260zM358 625h476q-8 88 -71 141t-163 53q-104 0 -166 -53t-76 -141z" />
<glyph unicode="&#xeb;" horiz-adv-x="1181" d="M94 496v24q0 160 63.5 277.5t178.5 182t266 64.5q150 0 260.5 -66.5t172 -184t61.5 -273.5v-88h-740q4 -104 78 -169.5t180 -65.5q109 0 160 47t78 104l211 -110q-29 -53 -83 -116t-144.5 -107t-229.5 -44q-152 0 -267.5 64.5t-180 182.5t-64.5 278zM225 1290 q0 76 48 120t118 44q72 0 119 -44t47 -120t-47 -120t-119 -44q-70 0 -118 44t-48 120zM358 625h476q-8 88 -71 141t-163 53q-104 0 -166 -53t-76 -141zM647 1290q0 76 48 120t118 44q72 0 119 -44t47 -120t-47 -120t-119 -44q-70 0 -118 44t-48 120z" />
<glyph unicode="&#xec;" horiz-adv-x="544" d="M-14 1434h291l151 -304h-225zM143 0v1016h258v-1016h-258z" />
<glyph unicode="&#xed;" horiz-adv-x="544" d="M117 1130l151 304h291l-217 -304h-225zM143 0v1016h258v-1016h-258z" />
<glyph unicode="&#xee;" horiz-adv-x="544" d="M-121 1130l240 304h307l239 -304h-260l-114 152h-37l-115 -152h-260zM143 0v1016h258v-1016h-258z" />
<glyph unicode="&#xef;" horiz-adv-x="544" d="M-104 1290q0 76 48 120t118 44q72 0 119 -44t47 -120t-47 -120t-119 -44q-70 0 -118 44t-48 120zM143 0v1016h258v-1016h-258zM318 1290q0 76 48 120t118 44q72 0 119 -44t47 -120t-47 -120t-119 -44q-70 0 -118 44t-48 120z" />
<glyph unicode="&#xf0;" horiz-adv-x="1261" d="M94 496v20q0 154 63.5 266.5t168 176t229.5 65.5q104 2 174 -33t117 -90h37q-39 162 -169 280.5t-329 188.5l82 207q229 -76 384 -220.5t233.5 -340t78.5 -424.5q0 -205 -67.5 -342t-187 -207t-279.5 -72q-158 -2 -279 63.5t-188.5 185.5t-67.5 276zM352 502 q0 -143 78 -222t197 -79q80 0 141 34.5t97 102.5t36 164v8q0 145 -76.5 223t-197.5 78q-119 0 -197 -78t-78 -223v-8zM459 1174l313 432l121 -90l-315 -431z" />
<glyph unicode="&#xf1;" horiz-adv-x="1261" d="M143 0v1016h254v-133h37q25 53 92.5 101t204.5 48q119 0 208 -54t138 -149.5t49 -222.5v-606h-258v586q0 115 -56 172t-161 57q-119 0 -184.5 -79t-65.5 -220v-516h-258zM250 1200l68 117q31 53 74.5 76.5t94.5 23.5q45 0 79 -17.5t67 -45.5q18 -16 39.5 -32.5 t48.5 -16.5q31 0 50.5 20.5t33.5 42.5l33 49l141 -90l-68 -117q-31 -51 -73.5 -75.5t-96.5 -24.5q-45 0 -78.5 17.5t-66.5 46.5q-18 16 -38.5 32.5t-49.5 16.5q-31 0 -49.5 -20.5t-34.5 -43.5l-33 -49z" />
<glyph unicode="&#xf2;" horiz-adv-x="1253" d="M94 492v32q0 164 69.5 281t190.5 178t273 61t272.5 -61t190 -178t69.5 -281v-32q0 -164 -69.5 -281t-190 -178.5t-272.5 -61.5t-273 61.5t-190.5 178.5t-69.5 281zM340 1434h291l151 -304h-225zM352 498q0 -143 78 -220t197 -77t196.5 76.5t77.5 220.5v20 q0 143 -76.5 220t-197.5 77q-119 0 -197 -76.5t-78 -220.5v-20z" />
<glyph unicode="&#xf3;" horiz-adv-x="1253" d="M94 492v32q0 164 69.5 281t190.5 178t273 61t272.5 -61t190 -178t69.5 -281v-32q0 -164 -69.5 -281t-190 -178.5t-272.5 -61.5t-273 61.5t-190.5 178.5t-69.5 281zM352 498q0 -143 78 -220t197 -77t196.5 76.5t77.5 220.5v20q0 143 -76.5 220t-197.5 77 q-119 0 -197 -76.5t-78 -220.5v-20zM471 1130l151 304h291l-217 -304h-225z" />
<glyph unicode="&#xf4;" horiz-adv-x="1253" d="M94 492v32q0 164 69.5 281t190.5 178t273 61t272.5 -61t190 -178t69.5 -281v-32q0 -164 -69.5 -281t-190 -178.5t-272.5 -61.5t-273 61.5t-190.5 178.5t-69.5 281zM234 1130l240 304h307l239 -304h-260l-114 152h-37l-115 -152h-260zM352 498q0 -143 78 -220t197 -77 t196.5 76.5t77.5 220.5v20q0 143 -76.5 220t-197.5 77q-119 0 -197 -76.5t-78 -220.5v-20z" />
<glyph unicode="&#xf5;" horiz-adv-x="1253" d="M94 492v32q0 164 69.5 281t190.5 178t273 61t272.5 -61t190 -178t69.5 -281v-32q0 -164 -69.5 -281t-190 -178.5t-272.5 -61.5t-273 61.5t-190.5 178.5t-69.5 281zM256 1200l68 117q31 53 74.5 76.5t94.5 23.5q45 0 79 -17.5t67 -45.5q18 -16 39.5 -32.5t48.5 -16.5 q31 0 50.5 20.5t33.5 42.5l33 49l141 -90l-68 -117q-31 -51 -73.5 -75.5t-96.5 -24.5q-45 0 -78.5 17.5t-66.5 46.5q-18 16 -38.5 32.5t-49.5 16.5q-31 0 -49.5 -20.5t-34.5 -43.5l-33 -49zM352 498q0 -143 78 -220t197 -77t196.5 76.5t77.5 220.5v20q0 143 -76.5 220 t-197.5 77q-119 0 -197 -76.5t-78 -220.5v-20z" />
<glyph unicode="&#xf6;" horiz-adv-x="1253" d="M94 492v32q0 164 69.5 281t190.5 178t273 61t272.5 -61t190 -178t69.5 -281v-32q0 -164 -69.5 -281t-190 -178.5t-272.5 -61.5t-273 61.5t-190.5 178.5t-69.5 281zM250 1290q0 76 48 120t118 44q72 0 119 -44t47 -120t-47 -120t-119 -44q-70 0 -118 44t-48 120zM352 498 q0 -143 78 -220t197 -77t196.5 76.5t77.5 220.5v20q0 143 -76.5 220t-197.5 77q-119 0 -197 -76.5t-78 -220.5v-20zM672 1290q0 76 48 120t118 44q72 0 119 -44t47 -120t-47 -120t-119 -44q-70 0 -118 44t-48 120z" />
<glyph unicode="&#xf7;" d="M207 600v234h856v-234h-856zM459 326q0 72 51 124t125 52t125 -52.5t51 -123.5q0 -72 -51 -124t-125 -52t-125 52t-51 124zM459 1108q0 72 51 124t125 52t125 -52t51 -124t-51 -124t-125 -52t-125 52t-51 124z" />
<glyph unicode="&#xf8;" horiz-adv-x="1253" d="M94 492v32q0 164 69.5 281t190.5 178t273 61t272.5 -61t190 -178t69.5 -281v-32q0 -164 -69.5 -281t-190 -178.5t-272.5 -61.5t-273 61.5t-190.5 178.5t-69.5 281zM160 -51l790 1204l144 -94l-791 -1204zM352 498q0 -143 78 -220t197 -77t196.5 76.5t77.5 220.5v20 q0 143 -76.5 220t-197.5 77q-119 0 -197 -76.5t-78 -220.5v-20z" />
<glyph unicode="&#xf9;" horiz-adv-x="1261" d="M135 410v606h258v-586q0 -115 56.5 -172t160.5 -57q119 0 184.5 78.5t65.5 220.5v516h258v-1016h-254v133h-37q-25 -51 -92.5 -100t-204.5 -49q-119 0 -208 54t-138 150.5t-49 221.5zM340 1434h291l151 -304h-225z" />
<glyph unicode="&#xfa;" horiz-adv-x="1261" d="M135 410v606h258v-586q0 -115 56.5 -172t160.5 -57q119 0 184.5 78.5t65.5 220.5v516h258v-1016h-254v133h-37q-25 -51 -92.5 -100t-204.5 -49q-119 0 -208 54t-138 150.5t-49 221.5zM471 1130l151 304h291l-217 -304h-225z" />
<glyph unicode="&#xfb;" horiz-adv-x="1261" d="M135 410v606h258v-586q0 -115 56.5 -172t160.5 -57q119 0 184.5 78.5t65.5 220.5v516h258v-1016h-254v133h-37q-25 -51 -92.5 -100t-204.5 -49q-119 0 -208 54t-138 150.5t-49 221.5zM234 1130l240 304h307l239 -304h-260l-114 152h-37l-115 -152h-260z" />
<glyph unicode="&#xfc;" horiz-adv-x="1261" d="M135 410v606h258v-586q0 -115 56.5 -172t160.5 -57q119 0 184.5 78.5t65.5 220.5v516h258v-1016h-254v133h-37q-25 -51 -92.5 -100t-204.5 -49q-119 0 -208 54t-138 150.5t-49 221.5zM250 1290q0 76 48 120t118 44q72 0 119 -44t47 -120t-47 -120t-119 -44q-70 0 -118 44 t-48 120zM672 1290q0 76 48 120t118 44q72 0 119 -44t47 -120t-47 -120t-119 -44q-70 0 -118 44t-48 120z" />
<glyph unicode="&#xfd;" horiz-adv-x="1261" d="M135 410v606h258v-586q0 -115 56.5 -172t160.5 -57q119 0 184.5 78.5t65.5 220.5v516h258v-1196q0 -104 -61.5 -167t-163.5 -63h-639v226h553q57 0 57 61v256h-37q-16 -35 -51 -69.5t-94 -57t-152 -22.5q-119 0 -208 54t-138 150.5t-49 221.5zM471 1130l151 304h291 l-217 -304h-225z" />
<glyph unicode="&#xfe;" horiz-adv-x="1306" d="M143 -410v1844h258v-535h37q23 37 61 69.5t100.5 54t154.5 21.5q123 0 227 -60t167.5 -177t63.5 -283v-32q0 -166 -63.5 -283t-167.5 -177.5t-227 -60.5q-92 0 -154.5 21.5t-100.5 55.5t-61 69h-37v-527h-258zM397 498q0 -147 80 -224t199 -77q121 0 199.5 76.5 t78.5 224.5v20q0 147 -78.5 224t-199.5 77q-119 0 -199 -76.5t-80 -224.5v-20z" />
<glyph unicode="&#xff;" horiz-adv-x="1261" d="M135 410v606h258v-586q0 -115 56.5 -172t160.5 -57q119 0 184.5 78.5t65.5 220.5v516h258v-1196q0 -104 -61.5 -167t-163.5 -63h-639v226h553q57 0 57 61v256h-37q-16 -35 -51 -69.5t-94 -57t-152 -22.5q-119 0 -208 54t-138 150.5t-49 221.5zM250 1290q0 76 48 120 t118 44q72 0 119 -44t47 -120t-47 -120t-119 -44q-70 0 -118 44t-48 120zM672 1290q0 76 48 120t118 44q72 0 119 -44t47 -120t-47 -120t-119 -44q-70 0 -118 44t-48 120z" />
<glyph unicode="&#x152;" horiz-adv-x="1712" d="M102 651v131q0 317 182.5 484.5t514.5 167.5v-230q-229 0 -327.5 -109.5t-98.5 -299.5v-156q0 -190 98 -300t328 -110v-229q-332 0 -514.5 168t-182.5 483zM799 0v1434h835v-246h-569v-342h512v-246h-512v-354h582v-246h-848z" />
<glyph unicode="&#x153;" horiz-adv-x="2015" d="M94 492v32q0 164 68.5 281t186.5 178t263 61t245.5 -54t160.5 -146h37q61 92 159.5 146t221.5 54q150 0 260 -66.5t171.5 -184t61.5 -273.5v-88h-739q4 -104 77.5 -169.5t180.5 -65.5q109 0 160 47t78 104l210 -110q-29 -53 -82 -116t-142 -107t-224 -44 q-137 0 -239.5 55.5t-153.5 145.5h-37q-59 -92 -160 -146.5t-246 -54.5t-263 61.5t-186.5 178.5t-68.5 281zM352 498q0 -143 78 -220t197 -77t196.5 76.5t77.5 220.5v20q0 143 -76.5 220t-197.5 77q-119 0 -197 -76.5t-78 -220.5v-20zM1192 625h475q-8 88 -70.5 141 t-162.5 53q-104 0 -167 -55t-75 -139z" />
<glyph unicode="&#x178;" horiz-adv-x="1277" d="M16 1434h301l304 -615h36l304 615h301l-488 -940v-494h-270v494zM246 1708q0 76 48 120t118 44q72 0 119 -44t47 -120t-47 -120t-119 -44q-70 0 -118 44t-48 120zM701 1708q0 76 48 120t117 44q72 0 119 -44t47 -120t-47 -120t-119 -44q-70 0 -117.5 44t-47.5 120z" />
<glyph unicode="&#x2c6;" horiz-adv-x="950" d="M82 1130l240 304h307l239 -304h-260l-114 152h-37l-115 -152h-260z" />
<glyph unicode="&#x2dc;" horiz-adv-x="892" d="M82 1200l68 117q31 53 74.5 76.5t94.5 23.5q45 0 79 -17.5t67 -45.5q18 -16 39.5 -32.5t48.5 -16.5q31 0 50.5 20.5t33.5 42.5l33 49l141 -90l-68 -117q-31 -51 -73.5 -75.5t-96.5 -24.5q-45 0 -78.5 17.5t-66.5 46.5q-18 16 -38.5 32.5t-49.5 16.5q-31 0 -49.5 -20.5 t-34.5 -43.5l-33 -49z" />
<glyph unicode="&#x2000;" horiz-adv-x="971" />
<glyph unicode="&#x2001;" horiz-adv-x="1942" />
<glyph unicode="&#x2002;" horiz-adv-x="971" />
<glyph unicode="&#x2003;" horiz-adv-x="1942" />
<glyph unicode="&#x2004;" horiz-adv-x="647" />
<glyph unicode="&#x2005;" horiz-adv-x="485" />
<glyph unicode="&#x2006;" horiz-adv-x="323" />
<glyph unicode="&#x2007;" horiz-adv-x="323" />
<glyph unicode="&#x2008;" horiz-adv-x="242" />
<glyph unicode="&#x2009;" horiz-adv-x="388" />
<glyph unicode="&#x200a;" horiz-adv-x="107" />
<glyph unicode="&#x2010;" horiz-adv-x="884" d="M139 406v233h606v-233h-606z" />
<glyph unicode="&#x2011;" horiz-adv-x="884" d="M139 406v233h606v-233h-606z" />
<glyph unicode="&#x2012;" horiz-adv-x="884" d="M139 406v233h606v-233h-606z" />
<glyph unicode="&#x2013;" horiz-adv-x="1196" d="M139 406v233h918v-233h-918z" />
<glyph unicode="&#x2014;" horiz-adv-x="1818" d="M139 406v233h1540v-233h-1540z" />
<glyph unicode="&#x2018;" horiz-adv-x="602" d="M110 997v236q0 229 230 229h100v-139h-80q-94 0 -94 -94v-66h35q82 0 136 -49t54 -125q0 -82 -54 -133t-136 -51q-84 0 -137.5 52t-53.5 140z" />
<glyph unicode="&#x2019;" horiz-adv-x="602" d="M111 1278q0 82 54 133t136 51q84 0 137.5 -52t53.5 -140v-236q0 -229 -230 -229h-100v139h80q94 0 94 94v66h-35q-82 0 -136 49t-54 125z" />
<glyph unicode="&#x201a;" horiz-adv-x="602" d="M111 172q0 82 54 133t136 51q84 0 137.5 -52t53.5 -140v-236q0 -229 -230 -229h-100v139h80q94 0 94 94v66h-35q-82 0 -136 49t-54 125z" />
<glyph unicode="&#x201c;" horiz-adv-x="1052" d="M110 997v236q0 229 230 229h100v-139h-80q-94 0 -94 -94v-66h35q82 0 136 -49t54 -125q0 -82 -54 -133t-136 -51q-84 0 -137.5 52t-53.5 140zM561 997v236q0 229 230 229h100v-139h-80q-94 0 -94 -94v-66h35q82 0 136 -49t54 -125q0 -82 -54 -133t-136 -51 q-84 0 -137.5 52t-53.5 140z" />
<glyph unicode="&#x201d;" horiz-adv-x="1052" d="M111 1278q0 82 54 133t136 51q84 0 137.5 -52t53.5 -140v-236q0 -229 -230 -229h-100v139h80q94 0 94 94v66h-35q-82 0 -136 49t-54 125zM562 1278q0 82 54 133t136 51q84 0 137.5 -52t53.5 -140v-236q0 -229 -230 -229h-100v139h80q94 0 94 94v66h-35q-82 0 -136 49 t-54 125z" />
<glyph unicode="&#x201e;" horiz-adv-x="1052" d="M111 172q0 82 54 133t136 51q84 0 137.5 -52t53.5 -140v-236q0 -229 -230 -229h-100v139h80q94 0 94 94v66h-35q-82 0 -136 49t-54 125zM562 172q0 82 54 133t136 51q84 0 137.5 -52t53.5 -140v-236q0 -229 -230 -229h-100v139h80q94 0 94 94v66h-35q-82 0 -136 49 t-54 125z" />
<glyph unicode="&#x2022;" horiz-adv-x="819" d="M115 524q0 82 37.5 148.5t105.5 105.5t152 39q86 0 152.5 -38t104.5 -104.5t38 -152.5t-40 -152.5t-107.5 -104.5t-147.5 -38q-82 0 -148.5 39t-106.5 106.5t-40 151.5z" />
<glyph unicode="&#x2026;" horiz-adv-x="1634" d="M111 166q0 86 56 140t140 54q82 0 137.5 -54t55.5 -140t-55.5 -140.5t-137.5 -54.5q-84 0 -140 54.5t-56 140.5zM623 166q0 86 56 140t140 54q82 0 137.5 -54t55.5 -140t-55.5 -140.5t-137.5 -54.5q-84 0 -140 54.5t-56 140.5zM1135 166q0 86 56 140t140 54 q82 0 137.5 -54t55.5 -140t-55.5 -140.5t-137.5 -54.5q-84 0 -140 54.5t-56 140.5z" />
<glyph unicode="&#x202f;" horiz-adv-x="388" />
<glyph unicode="&#x2039;" horiz-adv-x="983" d="M106 360v295l725 349h13v-277l-479 -201v-37l479 -200v-277h-13z" />
<glyph unicode="&#x203a;" horiz-adv-x="983" d="M139 12v277l479 200v37l-479 201v277h13l725 -349v-295l-725 -348h-13z" />
<glyph unicode="&#x205f;" horiz-adv-x="485" />
<glyph unicode="&#x20ac;" horiz-adv-x="1388" d="M86 463v209h684v-209h-684zM86 782v209h684v-209h-684zM217 557v320q0 180 65.5 311t189.5 202.5t298 71.5q256 0 394.5 -140t138.5 -380v-49h-271v37q0 129 -64.5 208t-197.5 79q-94 0 -157.5 -43.5t-94.5 -116t-31 -160.5v-360q0 -143 67 -231.5t216 -88.5 q145 0 203.5 80t58.5 207v37h271v-49q0 -238 -132.5 -379.5t-400.5 -141.5q-254 0 -403.5 149.5t-149.5 436.5z" />
<glyph unicode="&#x2122;" horiz-adv-x="1130" d="M66 1356v78h389v-78h-152v-377h-86v377h-151zM516 979v455h164l86 -377h20l86 377h164v-455h-86v377h-20l-86 -377h-135l-86 377h-21v-377h-86z" />
<glyph unicode="&#x25fc;" horiz-adv-x="1013" d="M0 0v1014h1014v-1014h-1014z" />
</font>
</defs>
</svg>
