<svg id="visual" viewBox="0 0 900 200" width="900" height="200" xmlns="http://www.w3.org/2000/svg" xmlns:xlink="http://www.w3.org/1999/xlink" version="1.1"><path d="M0 66L13.7 61.3C27.3 56.7 54.7 47.3 82 45.5C109.3 43.7 136.7 49.3 163.8 51.2C191 53 218 51 245.2 54.3C272.3 57.7 299.7 66.3 327 65.7C354.3 65 381.7 55 409 48.3C436.3 41.7 463.7 38.3 491 41.7C518.3 45 545.7 55 573 59.5C600.3 64 627.7 63 654.8 64.8C682 66.7 709 71.3 736.2 66.2C763.3 61 790.7 46 818 38.5C845.3 31 872.7 31 886.3 31L900 31L900 201L886.3 201C872.7 201 845.3 201 818 201C790.7 201 763.3 201 736.2 201C709 201 682 201 654.8 201C627.7 201 600.3 201 573 201C545.7 201 518.3 201 491 201C463.7 201 436.3 201 409 201C381.7 201 354.3 201 327 201C299.7 201 272.3 201 245.2 201C218 201 191 201 163.8 201C136.7 201 109.3 201 82 201C54.7 201 27.3 201 13.7 201L0 201Z" fill="#262636"></path><path d="M0 58L13.7 58.3C27.3 58.7 54.7 59.3 82 64.8C109.3 70.3 136.7 80.7 163.8 85.7C191 90.7 218 90.3 245.2 87.5C272.3 84.7 299.7 79.3 327 80.7C354.3 82 381.7 90 409 90.3C436.3 90.7 463.7 83.3 491 83.7C518.3 84 545.7 92 573 95.3C600.3 98.7 627.7 97.3 654.8 90.7C682 84 709 72 736.2 70.8C763.3 69.7 790.7 79.3 818 82.5C845.3 85.7 872.7 82.3 886.3 80.7L900 79L900 201L886.3 201C872.7 201 845.3 201 818 201C790.7 201 763.3 201 736.2 201C709 201 682 201 654.8 201C627.7 201 600.3 201 573 201C545.7 201 518.3 201 491 201C463.7 201 436.3 201 409 201C381.7 201 354.3 201 327 201C299.7 201 272.3 201 245.2 201C218 201 191 201 163.8 201C136.7 201 109.3 201 82 201C54.7 201 27.3 201 13.7 201L0 201Z" fill="#2a2a39"></path><path d="M0 130L13.7 125.7C27.3 121.3 54.7 112.7 82 111.3C109.3 110 136.7 116 163.8 118.2C191 120.3 218 118.7 245.2 117C272.3 115.3 299.7 113.7 327 109.5C354.3 105.3 381.7 98.7 409 100.8C436.3 103 463.7 114 491 116.5C518.3 119 545.7 113 573 111.7C600.3 110.3 627.7 113.7 654.8 113.2C682 112.7 709 108.3 736.2 107C763.3 105.7 790.7 107.3 818 111.5C845.3 115.7 872.7 122.3 886.3 125.7L900 129L900 201L886.3 201C872.7 201 845.3 201 818 201C790.7 201 763.3 201 736.2 201C709 201 682 201 654.8 201C627.7 201 600.3 201 573 201C545.7 201 518.3 201 491 201C463.7 201 436.3 201 409 201C381.7 201 354.3 201 327 201C299.7 201 272.3 201 245.2 201C218 201 191 201 163.8 201C136.7 201 109.3 201 82 201C54.7 201 27.3 201 13.7 201L0 201Z" fill="#2e2e3b"></path><path d="M0 125L13.7 129C27.3 133 54.7 141 82 142.7C109.3 144.3 136.7 139.7 163.8 139.8C191 140 218 145 245.2 148C272.3 151 299.7 152 327 146.8C354.3 141.7 381.7 130.3 409 130C436.3 129.7 463.7 140.3 491 140.7C518.3 141 545.7 131 573 129.3C600.3 127.7 627.7 134.3 654.8 139.7C682 145 709 149 736.2 149.7C763.3 150.3 790.7 147.7 818 143.8C845.3 140 872.7 135 886.3 132.5L900 130L900 201L886.3 201C872.7 201 845.3 201 818 201C790.7 201 763.3 201 736.2 201C709 201 682 201 654.8 201C627.7 201 600.3 201 573 201C545.7 201 518.3 201 491 201C463.7 201 436.3 201 409 201C381.7 201 354.3 201 327 201C299.7 201 272.3 201 245.2 201C218 201 191 201 163.8 201C136.7 201 109.3 201 82 201C54.7 201 27.3 201 13.7 201L0 201Z" fill="#32323d"></path><path d="M0 158L13.7 159C27.3 160 54.7 162 82 164.2C109.3 166.3 136.7 168.7 163.8 169.3C191 170 218 169 245.2 166.2C272.3 163.3 299.7 158.7 327 158.7C354.3 158.7 381.7 163.3 409 164.8C436.3 166.3 463.7 164.7 491 164.2C518.3 163.7 545.7 164.3 573 162.5C600.3 160.7 627.7 156.3 654.8 157.2C682 158 709 164 736.2 164.5C763.3 165 790.7 160 818 160C845.3 160 872.7 165 886.3 167.5L900 170L900 201L886.3 201C872.7 201 845.3 201 818 201C790.7 201 763.3 201 736.2 201C709 201 682 201 654.8 201C627.7 201 600.3 201 573 201C545.7 201 518.3 201 491 201C463.7 201 436.3 201 409 201C381.7 201 354.3 201 327 201C299.7 201 272.3 201 245.2 201C218 201 191 201 163.8 201C136.7 201 109.3 201 82 201C54.7 201 27.3 201 13.7 201L0 201Z" fill="#36363f"></path></svg>